<svg width="262" height="38" viewBox="0 0 262 38" fill="none" xmlns="http://www.w3.org/2000/svg">
<path fill-rule="evenodd" clip-rule="evenodd" d="M25.0167 0L30.5768 1.14249L34.7746 6.85525L35.9115 12.2164H40.2932L45.5315 13.8863L48.3463 15.8463L50.1665 18.3685L47.1931 21.6204L42.1207 24.1692L41.7666 26.8857L40.2932 31.0244L37.6606 34.1005L33.113 35.1551L35.824 30.9366L36.1739 27.1574L37.6606 24.6086L36.0864 24.4328L33.9001 26.4543L32.0635 30.3213L29.7022 35.0673L25.2858 37.3524L20.2572 37.8797L22.6184 32.3428L23.4055 26.8058L24.3675 24.0813L22.4435 24.8723L21.3066 27.0695L19.645 32.167L15.3649 35.0727L11.4949 32.6064L5.91465 27.4211L6.76462 23.2024L3.7569 19.8668L0.405052 15.9956L3.0287 15.9077L5.47737 14.7652L8.97557 11.8649L15.0099 10.0192L19.3826 12.3043L23.1431 16.1714L25.0167 14.941L21.569 12.4801L19.5575 9.75551L20.0823 6.41586L20.1697 3.86707L16.3217 0.878832L18.9454 0H25.0167Z" fill="#1CA57F"/>
<path fill-rule="evenodd" clip-rule="evenodd" d="M76.8959 19.2425C76.3979 18.8961 75.8959 18.6182 75.4023 18.4153C74.951 18.2306 74.1087 17.8108 72.7397 17.4625C70.6582 16.9326 70.8276 16.1568 71.2495 15.9295C72.2725 15.3788 74.1699 15.3729 76.1699 15.8766L77.0788 16.1054L78.3265 12.618L77.104 12.3393C75.8657 12.0561 74.6025 11.9129 73.3499 11.9129C71.5576 11.9129 70.0339 12.2655 68.8211 12.9621C67.0424 13.9839 66.6691 15.4578 66.6691 16.5138C66.6691 17.1384 66.825 17.7239 67.1324 18.2538C67.409 18.7306 67.7959 19.159 68.282 19.5259C68.7207 19.8574 69.1717 20.122 69.6204 20.3111C70.0219 20.4819 70.8553 20.7814 72.1692 21.2277C73.623 21.7218 74.1749 22.0899 74.3741 22.2652C74.6407 22.4996 74.6775 22.6928 74.6775 22.8665C74.6775 23.1413 74.6118 23.4373 74.1355 23.7397C73.1012 24.3955 71.2237 24.4984 68.6246 23.6273L67.6378 23.2965L66.519 26.7242L67.5123 27.1096C68.7756 27.5999 70.2519 27.8487 71.8994 27.8487C73.6592 27.8487 75.2213 27.4434 76.5434 26.643C78.041 25.7361 78.833 24.3628 78.833 22.6704C78.833 21.9229 78.6364 21.2366 78.2473 20.6293C77.9037 20.0935 77.4491 19.6271 76.8959 19.2425Z" fill="#1CA57F"/>
<path fill-rule="evenodd" clip-rule="evenodd" d="M89.5654 15.6495H90.8451C91.6859 15.6495 92.3598 15.815 92.8486 16.142C93.325 16.4614 93.325 16.7284 93.325 16.8723C93.325 17.6324 92.4567 18.018 90.7441 18.018H89.5654V15.6495ZM95.5877 13.0498C94.3999 12.294 92.8385 11.9108 90.9464 11.9108H85.3516V27.8466H89.5655V21.7582H91.0344C92.8862 21.7582 94.4279 21.3517 95.6171 20.5508C97.3103 19.4103 97.6656 17.869 97.6656 16.7764C97.6656 15.6801 97.305 14.1433 95.5877 13.0498Z" fill="#1CA57F"/>
<path fill-rule="evenodd" clip-rule="evenodd" d="M112.878 24.1074H109.741V15.6498H112.878V11.9108H102.012V15.6498H105.27V24.1074H102.012V27.8466H112.878V24.1074Z" fill="#1CA57F"/>
<path fill-rule="evenodd" clip-rule="evenodd" d="M122.497 15.6495H123.878C124.786 15.6495 125.513 15.815 126.041 16.142C126.555 16.4614 126.555 16.7284 126.555 16.8723C126.555 17.6324 125.618 18.018 123.769 18.018H122.497V15.6495ZM133.159 27.8466L127.045 21.383C127.777 21.1834 128.446 20.9134 129.027 20.5508C130.854 19.4103 131.238 17.869 131.238 16.7764C131.238 15.6801 130.848 14.1433 128.995 13.0498C127.713 12.294 126.028 11.9108 123.986 11.9108H117.948V27.8466H122.496V22.7798L127.136 27.8466H133.159Z" fill="#1CA57F"/>
<path fill-rule="evenodd" clip-rule="evenodd" d="M148.371 24.1074H145.234V15.6498H148.371V11.9108H137.506V15.6498H140.763V24.1074H137.506V27.8466H148.371V24.1074Z" fill="#1CA57F"/>
<path fill-rule="evenodd" clip-rule="evenodd" d="M152.718 11.9108V15.5536H158.499V27.8466H162.898V15.5536H168.653V11.9108H152.718Z" fill="#1CA57F"/>
<path fill-rule="evenodd" clip-rule="evenodd" d="M241.611 19.2406C241.087 18.894 240.559 18.6161 240.04 18.4134C239.566 18.2285 238.68 17.8087 237.241 17.4604C235.053 16.9305 235.231 16.1547 235.674 15.9274C236.75 15.3767 238.745 15.3708 240.847 15.8745L241.803 16.1033L243.115 12.6159L241.829 12.3372C240.528 12.054 239.2 11.9108 237.883 11.9108C235.998 11.9108 234.396 12.2634 233.122 12.9602C231.251 13.9818 230.859 15.4557 230.859 16.5117C230.859 17.1363 231.023 17.7218 231.346 18.2517C231.637 18.7285 232.044 19.1571 232.555 19.5238C233.016 19.8553 233.49 20.1199 233.962 20.309C234.384 20.4798 235.26 20.7795 236.641 21.2256C238.17 21.7199 238.75 22.0878 238.959 22.2631C239.24 22.4977 239.278 22.6907 239.278 22.8644C239.278 23.1394 239.209 23.4352 238.709 23.7376C237.621 24.3934 235.648 24.4965 232.915 23.6252L231.877 23.2944L230.701 26.7221L231.745 27.1075C233.074 27.5978 234.626 27.8466 236.358 27.8466C238.208 27.8466 239.85 27.4413 241.24 26.6411C242.815 25.734 243.647 24.3607 243.647 22.6683C243.647 21.9211 243.44 21.2347 243.031 20.6272C242.67 20.0914 242.192 19.625 241.611 19.2406Z" fill="#1CA57F"/>
<path fill-rule="evenodd" clip-rule="evenodd" d="M196.179 27.8467H200.493V21.68H207.374V18.0699H200.493V16.0706H208.046V12.4604H196.179V27.8467Z" fill="#1CA57F"/>
<path fill-rule="evenodd" clip-rule="evenodd" d="M214.518 16.0706H217.753V24.2366H214.518V27.8467H225.307V24.2366H222.192V16.0706H225.307V12.4604H214.518V16.0706Z" fill="#1CA57F"/>
<path fill-rule="evenodd" clip-rule="evenodd" d="M257.046 17.7257H252.906V12.4604H248.503V27.8467H252.906V21.3457H257.046V27.8467H261.449V12.4604H257.046V17.7257Z" fill="#1CA57F"/>
</svg>
